<svg width="330" height="240" viewBox="0 0 330 240" fill="none" xmlns="http://www.w3.org/2000/svg">
<rect width="330" height="240" fill="white"/>
<g clip-path="url(#clip0_3039_760)">
<path d="M248.682 80.7434C244.381 76.2725 236.468 74 225.163 74C210.441 74 190.264 77.9275 165.147 85.659C127.767 96.0582 103.215 101.122 90.0423 101.122C88.199 101.122 86.6262 101.023 85.2745 100.825C80.9982 100.257 79.0075 98.8741 78.0245 97.2191V102.629V148.524V152.179C77.9262 155.02 79.0567 157.811 81.1948 160.034C85.6431 164.678 94.0973 167.025 106.336 167.025C120.935 167.025 140.62 163.591 164.877 156.848C203.044 146.226 227.841 141.064 240.695 141.064C242.268 141.064 243.619 141.138 244.799 141.286H244.897C249.075 141.805 251.017 143.139 252 144.72V89.043C252.098 86.0295 250.919 83.09 248.682 80.7434Z" fill="white"/>
<path d="M248.682 80.7434C244.381 76.2725 236.468 74 225.163 74C210.442 74 190.264 77.9275 165.148 85.659C127.767 96.0582 103.215 101.122 90.0424 101.122C88.1992 101.122 86.6263 101.023 85.2746 100.825V100.282C80.6543 99.6398 78.8848 98.0096 78.1229 96.1817C78.0001 96.9474 78.0001 97.2191 78.0001 97.2191V98.0096C78.8111 104.605 79.7204 114.016 165 89.5371C241.703 67.5283 250.845 85.8566 251.877 92.5259C251.877 92.5753 251.926 92.7976 252 93.094V89.043C252.098 86.0295 250.919 83.09 248.682 80.7434ZM165 151.488C95.4984 171.446 81.4653 158.256 78.6882 150.648C78.5899 150.401 78.295 149.734 78.0492 149.018C78.0492 148.968 78.0246 148.943 78.0001 148.894V152.155C77.9017 154.995 79.0323 157.786 81.1704 160.01C85.6187 164.653 94.0729 167 106.312 167C120.91 167 140.596 163.567 164.853 156.823C203.02 146.202 227.817 141.039 240.67 141.039C242.243 141.039 243.595 141.113 244.775 141.261H244.627V141.78C249.395 142.299 251.14 143.904 251.902 145.732C251.951 145.411 251.975 145.041 251.975 144.695V143.065C251.189 136.42 250.28 127.009 165 151.488Z" fill="#F0C85A"/>
<path fill-rule="evenodd" clip-rule="evenodd" d="M165 92.0813C90.7306 113.028 80.0645 108.606 78.0247 102.604V148.499C80.4577 155.588 93.778 168.655 165.025 148.573C239.245 127.651 249.96 132.073 252.025 138.05V94.3291C249.518 86.5482 236.124 72.0486 165 92.0813Z" fill="#AE192F"/>
<path d="M187.045 116.931C186.848 116.782 186.652 116.733 186.43 116.807C186.185 116.931 186.086 117.153 186.037 117.425C185.742 119.648 184.931 120.982 183.997 121.13C183.997 121.13 183.948 121.13 183.924 121.105C183.776 120.982 183.653 120.759 183.629 120.463C183.53 119.426 183.58 118.314 183.727 117.227C183.874 116.165 184.071 115.078 184.292 114.016C184.366 113.571 184.415 113.349 184.513 112.904C184.784 111.472 184.317 110.681 183.825 110.311C183.211 109.792 182.326 109.767 181.785 110.014C181.515 110.163 181.319 110.385 181.319 110.681C181.269 111.941 181.22 114.51 180.802 116.931C180.36 119.302 179.524 121.624 177.952 122.118H177.878C177.73 122.044 177.583 121.772 177.534 121.5C177.313 119.426 177.78 117.252 178.247 115.127C178.296 114.88 178.296 114.782 178.369 114.535C178.787 112.559 178.025 111.546 177.091 111.324C176.428 111.151 175.691 111.422 175.519 112.04C174.56 115.523 173.651 119.253 173.675 122.76C173.675 122.785 173.675 122.785 173.675 122.785C173.061 124.316 172.274 124.687 171.93 124.786C171.66 124.86 171.463 124.786 171.316 124.687C171.021 124.489 170.824 124.168 170.8 123.946C170.677 123.304 170.726 122.563 170.8 121.822C170.898 121.08 171.07 120.364 171.193 119.722C171.414 118.684 171.635 117.647 171.709 116.634C171.783 114.633 170.923 113.275 170.112 113.151C169.719 113.102 169.424 113.324 169.301 113.72C168.637 116.041 166.745 117.845 164.73 118.141C164.459 118.166 164.336 118.19 164.091 118.215C162.444 118.289 160.674 118.561 160.109 120.512C160.085 120.636 160.109 120.784 160.183 120.858C160.257 120.957 160.38 120.982 160.478 120.957C160.822 120.932 161.141 120.833 161.436 120.809C161.78 120.784 162.1 120.833 162.444 121.08C162.935 121.476 163.181 122.192 163.083 123.402C162.935 125.527 161.535 127.182 160.65 127.429C160.183 127.552 159.47 127.379 159.126 126.169C158.192 122.686 159.839 119.277 161.658 115.992C161.78 115.745 161.83 115.473 161.682 115.3C161.51 115.004 161.117 114.955 160.724 114.979C159.618 115.053 157.529 116.017 156.546 118.215C155.513 120.463 154.997 122.859 155.047 125.107C155.047 125.947 155.145 126.712 155.317 127.478V127.503C154.973 128.985 154.53 129.479 153.326 129.8C153.179 129.825 153.031 129.775 152.933 129.701C152.736 129.578 152.589 129.355 152.564 129.207C152.417 128.441 152.441 127.676 152.564 126.91C152.663 126.144 152.884 125.378 153.056 124.637C153.154 124.267 153.203 124.069 153.302 123.699C153.597 122.513 153.695 120.216 152.663 119.129C152.171 118.635 151.508 118.462 150.697 118.709C150.377 118.808 150.279 119.055 150.279 119.425V119.722C150.303 121.327 149.738 122.439 148.632 123.649C148.485 123.822 148.263 124.02 148.018 124.242C147.452 124.736 147.035 124.267 147.059 123.847C147.084 123.526 147.108 123.229 147.108 122.958C147.108 122.834 147.108 122.735 147.084 122.637C147.035 121.945 146.813 121.402 146.42 120.908C145.904 120.216 143.791 119.92 143.201 120.389C142.93 120.586 142.906 120.908 143.078 121.229C144.233 124.069 143.496 127.997 142.955 130.516C142.758 131.48 142.562 132.344 142.488 133.011C142.414 133.703 142.488 134.197 142.783 134.469C143.397 135.061 145.388 135.901 146.076 135.555C146.297 135.457 146.42 135.21 146.396 134.987C146.371 134.79 146.371 134.567 146.371 134.394C146.322 132.369 146.912 129.676 148.042 127.626C148.214 127.305 148.46 127.157 148.681 127.083C148.878 127.058 149.124 127.132 149.099 127.429C149.05 128.022 149.025 128.614 149.05 129.158C149.074 130.245 149.222 131.257 149.492 132.171C149.689 132.863 150.058 133.357 150.598 133.629C151.139 133.925 151.827 133.95 152.515 133.703C154.285 133.085 155.563 131.084 156.152 129.924C156.202 129.849 156.275 129.825 156.324 129.924C156.988 131.109 158.119 132.147 160.355 131.48C163.82 130.467 164.975 126.292 164.902 122.884C164.877 122.291 164.828 121.723 164.754 121.204C164.754 121.13 164.779 121.08 164.852 121.08C165.614 121.105 166.573 121.056 167.408 120.562C167.507 120.512 167.556 120.562 167.556 120.661C167.556 120.735 167.531 120.784 167.531 120.858C167.384 121.55 167.261 122.217 167.163 122.884C167.064 123.551 167.015 124.218 167.015 124.909C167.015 125.354 167.064 125.749 167.163 126.144C167.335 127.058 167.777 127.799 168.441 128.219C169.104 128.639 169.989 128.738 170.874 128.491C172.176 128.12 173.479 126.861 174.339 125.354C174.388 125.28 174.462 125.255 174.511 125.354C175.101 126.589 175.936 127.132 177.116 126.811C178.517 126.465 179.795 125.156 180.557 123.551C180.581 123.452 180.704 123.452 180.729 123.551C181.048 124.267 181.441 124.712 181.785 124.934C182.302 125.304 182.965 125.428 183.604 125.28C185.988 124.687 187.241 121.822 187.61 119.623C187.782 118.339 187.512 117.351 187.045 116.931ZM104.641 133.357C104.641 133.332 104.641 133.283 104.641 133.258C109.261 128.516 113.611 122.612 113.832 114.386C113.881 112.559 111.743 111.867 111.374 113.324C110.17 118.363 106.213 122.587 102.035 126.416C101.986 126.465 101.913 126.416 101.888 126.342C101.249 124.613 100.585 122.735 99.8482 120.611C98.2999 116.066 97.3168 114.016 93.5567 114.041C92.4753 114.041 92.6474 115.597 92.9669 116.511C93.9991 119.253 96.0143 124.39 98.177 129.775C98.2016 129.8 98.177 129.874 98.177 129.874C93.4092 134.222 89.3787 138.223 90.0423 142.719C90.288 144.448 91.0253 146.103 91.738 146.918C92.4262 147.684 93.0897 147.758 93.3601 146.325C93.655 144.794 94.6135 143.312 95.9652 141.755C97.3168 140.199 99.0618 138.594 100.93 136.865C100.979 136.815 101.052 136.84 101.102 136.914C102.65 140.693 104.075 144.151 105.108 146.473C105.697 147.832 106.951 147.832 108.057 147.313C109.212 146.77 110.047 145.757 109.875 145.312C108.819 142.2 107.246 139.656 104.641 133.357ZM185.398 103.246C185.03 103.049 184.489 103.222 184.145 103.765C183.653 104.506 183.039 105.296 182.13 105.568C181.171 105.865 180.532 105.568 179.697 104.284C179.23 103.567 178.296 103.246 177.411 103.469C176.403 103.716 175.691 104.531 175.543 105.618C175.42 106.482 175.789 107.297 176.526 107.89C177.78 108.903 179.819 109.076 181.687 108.335C183.702 107.569 185.054 105.766 185.619 104.432C185.718 104.21 185.767 103.963 185.742 103.79C185.718 103.543 185.595 103.345 185.398 103.246ZM141.456 123.106C141.21 122.019 140.866 120.957 140.424 119.944C140.006 118.907 139.563 117.894 139.072 116.906C138.974 116.708 138.924 116.585 138.826 116.387C138.359 115.375 138.285 114.535 138.482 113.917C138.777 113.053 139.637 112.534 140.35 112.188C141.53 111.595 141.431 111.002 140.694 110.582C139.514 109.916 135.951 109.323 134.034 112.336C133.346 113.448 133.124 114.535 133.174 115.523C133.247 117.128 134.034 118.265 135.263 119.673C135.582 120.043 135.951 120.414 136.295 120.809C136.639 121.179 136.983 121.575 137.302 121.97C137.352 122.044 137.302 122.143 137.229 122.143C135.14 122.143 132.977 123.872 131.896 125.7C130.618 127.873 129.979 130.418 130.077 132.764C130.102 133.283 130.175 133.826 130.249 134.32C130.249 134.32 130.249 134.37 130.224 134.394C129.512 135.506 127.669 136.914 126.661 137.112C125.088 137.457 123.958 136.543 123.663 135.679C123.638 135.629 123.663 135.58 123.712 135.555C126.219 134.691 129.34 131.603 129.217 128.194C129.217 127.947 129.192 127.7 129.143 127.453C128.627 125.774 127.423 124.514 125.457 125.057C122.409 125.749 119.878 129.998 119.632 133.382C119.583 134.024 119.583 134.518 119.583 134.987C119.632 136.025 119.804 136.543 120.099 137.507C120.099 137.531 120.099 137.581 120.074 137.606C118.993 138.594 117.863 139.162 117.641 135.926C117.617 135.333 117.469 133.48 117.125 131.48C116.781 129.479 116.216 127.355 115.307 126.194C115.135 126.021 114.963 125.922 114.741 125.996C114.348 126.144 114.176 126.811 114.102 127.28C113.439 131.356 112.112 135.629 109.777 138.915C109.089 139.853 110.121 142.867 111.252 142.842C112.259 142.793 112.898 142.052 113.39 141.088C113.635 140.594 113.832 140.051 114.004 139.532C114.176 138.989 114.348 138.47 114.496 138.026C114.594 137.729 114.643 137.606 114.741 137.334C114.766 137.21 114.913 137.235 114.913 137.359C114.987 137.902 115.11 138.544 115.282 139.137C115.774 140.841 116.658 141.879 117.863 141.755C118.944 141.632 120.541 140.545 121.303 139.73C121.352 139.68 121.402 139.68 121.451 139.73C122.335 140.669 124.277 140.94 125.383 140.693C127.447 140.249 129.561 138.618 130.937 136.543C130.986 136.469 131.06 136.469 131.109 136.543C131.257 136.815 131.429 137.037 131.601 137.235C132.363 138.1 133.444 138.47 134.697 138.273C136.59 138.001 138.63 136.469 139.809 134.518C141.751 131.035 142.316 126.959 141.456 123.106ZM126.219 128.17C126.489 128.145 126.661 128.194 126.759 128.318C126.907 128.466 126.98 128.713 126.98 129.01C126.98 129.108 126.98 129.207 126.98 129.281C126.858 130.22 125.629 132.443 123.761 133.036C123.687 133.036 123.638 133.011 123.638 132.937C123.933 130.146 125.53 128.269 126.219 128.17ZM137.474 133.135C137.13 133.777 136.467 134.172 135.926 134.123C135.459 134.098 135.066 133.727 134.869 133.061C134.378 131.455 134.304 130.146 134.55 128.343C134.796 126.688 135.312 125.625 136 125.131C136.786 124.588 137.302 124.983 137.45 125.107C138.974 126.465 138.826 130.788 137.474 133.135ZM240.572 109.866C240.375 109.669 240.13 109.52 239.933 109.57C239.786 109.594 239.712 109.817 239.613 110.212C239.54 110.582 239.491 111.076 239.417 111.546C239.245 112.484 238.901 113.448 237.893 113.423C237.869 113.423 237.819 113.398 237.795 113.398C237.254 112.781 237.303 111.249 237.5 109.767C237.697 108.261 238.016 106.704 238.09 106.062C238.262 104.382 237.574 103.32 236.836 102.876C236.099 102.406 235.313 102.579 235.214 103.271C235.018 104.506 233.199 112.065 231.552 112.361C231.528 112.361 231.454 112.361 231.454 112.336C230.938 111.694 230.815 108.261 230.938 107.1C231.233 104.778 231.258 102.703 229.537 102.011C228.849 101.739 228.186 101.838 228.013 102.505C227.62 103.963 226.613 109.224 226.416 109.99C226.219 110.731 226.047 111.324 225.9 111.571C225.875 111.62 225.826 111.694 225.752 111.719C225.703 111.768 225.63 111.768 225.556 111.719C225.458 111.645 225.384 111.472 225.335 111.249C225.187 110.755 225.064 109.841 224.892 108.409C224.892 108.261 224.892 108.112 224.843 107.964C224.819 107.692 224.819 107.544 224.794 107.273C224.696 106.581 224.032 106.359 223.246 106.581C223.172 106.606 223.098 106.63 223.024 106.68C222.68 106.803 222.312 106.951 221.919 107.1C221.869 107.124 221.796 107.1 221.771 107.001C221.624 105.865 221.083 104.876 220.124 104.432C219.952 104.358 219.756 104.308 219.535 104.284C219.461 104.284 219.412 104.21 219.436 104.16C219.559 103.493 218.674 102.431 217.2 102.233C213.268 101.641 209.753 105.148 208.844 108.878C207.984 112.484 208.721 117.894 212.874 118.759C217.372 119.722 220.469 114.782 220.862 110.755C220.862 110.731 220.911 110.681 220.935 110.681C221.206 110.657 221.501 110.582 221.796 110.508C221.845 110.508 221.919 110.558 221.919 110.607C222.041 111.422 222.091 112.188 222.164 112.88C222.238 113.571 222.336 114.214 222.508 114.806C223.491 118.141 226.613 116.56 228.112 112.682C228.136 112.608 228.259 112.633 228.284 112.707C228.554 114.461 230.127 117.128 231.159 117.301C232.339 117.474 234.502 115.473 235.239 113.522C235.263 113.448 235.386 113.448 235.411 113.547C237.058 118.61 239.491 117.795 240.646 115.498C241.555 113.497 241.702 110.953 240.572 109.866ZM214.791 115.103C212.727 115.127 211.916 112.929 212.678 109.496C213.096 107.643 215.209 104.728 217.028 104.876C217.175 104.876 217.274 104.901 217.397 104.901C217.495 104.901 217.544 105 217.47 105.074C217.151 105.395 216.905 105.79 216.758 106.284C216.217 107.989 217.003 109.792 218.429 110.385C218.453 110.385 218.502 110.459 218.478 110.484C218.035 113.201 216.34 115.103 214.791 115.103ZM195.327 95.1195C195.474 93.7857 195.671 92.353 194.098 93.0693C191.763 94.1562 190.756 97.5649 190.756 97.5649C185.03 100.134 188.028 103.197 190.019 103.271C190.019 103.493 189.92 104.086 189.92 104.308C189.871 104.926 189.773 105.568 189.699 106.21C189.429 108.409 189.257 110.755 189.085 113.077C188.839 116.338 188.765 119.475 189.994 121.994C190.731 123.452 192.034 124.316 193.14 124.489C197.441 125.823 203.069 119.277 204.887 116.066C213.563 100.826 205.256 91.0685 195.327 95.1195ZM203.88 105.371C203.535 110.484 200.439 117.351 196.9 119.475C194.885 120.685 194.049 119.944 194 119.129C193.877 117.647 194.246 111.62 194.344 110.138C194.541 107.1 195.057 101.023 195.081 100.998C201.397 97.0462 204.199 100.183 203.88 105.371Z" fill="white"/>
<path d="M252 144.67C252 145.041 251.975 145.386 251.926 145.708C251.115 150.697 244.652 151.068 244.652 151.068V141.212H244.922C251.263 141.335 252 144.67 252 144.67Z" fill="#F0C85A"/>
<path d="M85.2747 90.9697V100.826C79.573 100.826 78.295 98.2072 78.0738 97.5402C78.0492 97.4414 78.0247 97.392 78.0247 97.392C78.0247 97.3179 78.0247 97.2685 78.0247 97.2191C78.0247 96.8486 78.0492 96.5028 78.123 96.1817C78.123 96.157 78.123 96.1323 78.123 96.1076C79.106 91.3402 85.2747 90.9697 85.2747 90.9697Z" fill="#F0C85A"/>
</g>
<defs>
<clipPath id="clip0_3039_760">
<rect width="174" height="93" fill="white" transform="translate(78 74)"/>
</clipPath>
</defs>
</svg>
