<svg width="226" height="347" viewBox="0 0 226 347" fill="none" xmlns="http://www.w3.org/2000/svg">
<path d="M113 0C50.6734 0 0 50.7417 0 113.152C0 151.312 14.537 174.001 28.25 189.766C35.1065 197.663 41.7276 204.028 46.1417 209.803C50.5557 215.578 52.7333 220.234 52.7333 226.304V301.739C52.7333 314.145 62.9445 324.37 75.3333 324.37H84.0437C87.3984 337.335 99.0516 347 113 347C126.948 347 138.602 337.335 141.956 324.37H150.667C163.055 324.37 173.267 314.145 173.267 301.739V226.304C173.267 217.788 175.768 211.895 180.094 205.796C184.42 199.696 190.923 193.626 197.75 186.23C211.375 171.408 226 150.604 226 113.152C226 50.7417 175.327 0 113 0ZM113 15.087C167.175 15.087 210.933 58.904 210.933 113.152C210.933 146.862 199.192 162.273 186.45 176.093C180.094 183.018 173.414 189.265 167.852 197.073C162.29 204.882 158.2 214.518 158.2 226.304V264.022H67.8V226.304C67.8 216.138 63.3859 207.74 57.9125 200.609C52.4391 193.478 45.8768 187.114 39.55 179.865C26.8964 165.338 15.0667 147.658 15.0667 113.152C15.0667 58.904 58.8247 15.087 113 15.087ZM82.1604 112.916C81.8367 112.975 81.513 113.064 81.2187 113.152C78.3937 113.653 76.1279 115.716 75.3333 118.456C74.5388 121.226 75.3628 124.173 77.4521 126.118L105.467 154.17V248.935H120.533V154.17L148.548 126.118C151.549 123.112 151.549 118.279 148.548 115.274C145.546 112.268 140.72 112.268 137.719 115.274L113 140.026L88.2812 115.274C86.7216 113.594 84.4557 112.74 82.1604 112.916ZM67.8 279.109H158.2V301.739C158.2 305.923 154.845 309.283 150.667 309.283H91.8125C90.812 309.076 89.7526 309.076 88.7521 309.283H75.3333C71.1547 309.283 67.8 305.923 67.8 301.739V279.109ZM100.052 324.37H125.948C123.358 328.878 118.621 331.913 113 331.913C107.379 331.913 102.642 328.878 100.052 324.37Z" fill="black"/>
</svg>
