<?xml version="1.0" encoding="UTF-8" standalone="no"?>
<!DOCTYPE svg PUBLIC "-//W3C//DTD SVG 1.1//EN" "http://www.w3.org/Graphics/SVG/1.1/DTD/svg11.dtd">
<svg width="100%" height="100%" viewBox="0 0 120 120" version="1.1" xmlns="http://www.w3.org/2000/svg" xmlns:xlink="http://www.w3.org/1999/xlink" xml:space="preserve" xmlns:serif="http://www.serif.com/" style="fill-rule:evenodd;clip-rule:evenodd;stroke-linejoin:round;stroke-miterlimit:2;">
    <g transform="matrix(1,0,0,1,-4.19102,-4.30432)">
        <path d="M63.868,4.304C96.826,4.304 123.544,31.022 123.544,63.98C123.544,96.939 96.826,123.657 63.868,123.657C30.909,123.657 4.191,96.939 4.191,63.98C4.191,31.022 30.909,4.304 63.868,4.304Z" style="fill:rgb(4,63,136);"/>
        <path d="M110.53,86.995C110.709,86.818 110.821,86.569 110.821,86.297L110.821,76.226L107.912,76.226C107.571,76.226 107.239,76.345 106.943,76.519C106.552,76.747 106.224,77.071 106.019,77.346L102.613,81.874L102.285,81.874L102.285,76.226L99.414,76.226C99.141,76.226 98.889,76.337 98.708,76.517C98.529,76.696 98.417,76.943 98.417,77.218L98.417,87.286L101.292,87.286C101.586,87.286 101.92,87.187 102.223,87.025C102.527,86.864 102.796,86.641 102.96,86.399C104.295,84.729 105.588,82.903 106.88,81.184L106.954,87.286L109.828,87.286C110.102,87.286 110.351,87.175 110.53,86.995ZM70.392,87.288L79.735,87.286C80.326,87.286 80.785,87.061 81.141,86.698C81.511,86.322 81.779,85.796 81.981,85.213L82.554,83.6C82.65,83.329 82.676,83.055 82.635,82.794C82.596,82.531 82.489,82.279 82.317,82.049L81.955,81.58L81.462,80.962L81.958,79.797C82.075,79.524 82.118,79.242 82.089,78.97C82.06,78.697 81.958,78.431 81.787,78.188L80.894,76.926C80.734,76.7 80.534,76.523 80.306,76.405C80.079,76.288 79.82,76.226 79.542,76.226L71.384,76.226C71.109,76.226 70.859,76.336 70.68,76.516C70.501,76.694 70.392,76.942 70.392,77.218L70.392,87.288ZM78.701,83.558L78.699,83.6L78.753,83.6L78.273,84.899L74.254,84.899L74.254,82.712L77.738,82.712C77.842,82.712 77.942,82.724 78.035,82.748C78.239,82.796 78.405,82.898 78.519,83.037C78.636,83.179 78.701,83.358 78.701,83.558ZM78.571,79.506C78.571,79.661 78.528,79.829 78.438,80.007L78.095,80.691L74.254,80.691L74.254,78.731L77.655,78.731C77.854,78.731 78.027,78.772 78.167,78.844C78.295,78.91 78.397,79.003 78.465,79.116C78.535,79.229 78.571,79.361 78.571,79.506ZM105.921,74.672L103.935,74.672L103.935,77.381L105.921,74.672ZM92.111,82.558L89.311,82.558L89.615,81.701L90.711,78.735L92.122,78.735L92.123,81.756L92.111,82.558ZM88.595,84.578L92.083,84.578L92.073,85.271C92.061,85.845 92.133,86.361 92.357,86.727C92.569,87.072 92.931,87.286 93.505,87.286L96.271,87.286L96.145,81.759L96.099,77.26C96.096,76.948 95.987,76.688 95.799,76.509C95.611,76.33 95.336,76.226 95.004,76.226L93.336,76.225L93.331,76.2L89.928,76.2L89.934,76.226L89.195,76.226C88.603,76.226 88.145,76.452 87.787,76.816C87.419,77.191 87.15,77.717 86.949,78.298L85.701,81.812L83.677,87.286L86.121,87.286C86.714,87.286 87.171,87.061 87.529,86.698C87.897,86.322 88.166,85.796 88.369,85.213L88.595,84.578ZM63.684,82.558L60.883,82.558L61.188,81.701L62.283,78.735L63.694,78.735L63.696,81.756L63.684,82.558ZM60.167,84.578L63.655,84.578L63.644,85.271C63.634,85.845 63.707,86.361 63.929,86.727C64.142,87.072 64.503,87.286 65.078,87.286L67.844,87.286L67.718,81.759L67.673,77.26C67.67,76.948 67.56,76.688 67.373,76.509C67.184,76.33 66.91,76.226 66.578,76.226L64.91,76.225L64.904,76.2L61.501,76.2L61.506,76.226L60.768,76.226C60.176,76.226 59.718,76.452 59.361,76.816C58.992,77.191 58.723,77.717 58.52,78.299L57.275,81.812L55.251,87.286L57.694,87.286C58.287,87.286 58.744,87.061 59.102,86.698C59.47,86.322 59.74,85.796 59.942,85.213L60.167,84.578ZM38.378,82.558L35.577,82.558L35.882,81.701L36.978,78.735L38.388,78.735L38.39,81.756L38.378,82.558ZM34.861,84.578L38.349,84.578L38.338,85.271C38.327,85.845 38.4,86.361 38.624,86.727C38.835,87.072 39.197,87.286 39.772,87.286L42.537,87.286L42.411,81.759L42.367,77.26C42.363,76.948 42.254,76.688 42.066,76.509C41.877,76.329 41.603,76.226 41.271,76.226L39.604,76.225L39.598,76.2L36.194,76.2L36.2,76.226L35.462,76.226C34.87,76.226 34.413,76.452 34.055,76.816C33.687,77.191 33.418,77.717 33.215,78.299L31.969,81.812L29.944,87.286L32.388,87.286C32.98,87.286 33.439,87.061 33.795,86.698C34.164,86.322 34.433,85.796 34.635,85.213L34.861,84.578ZM51.534,78.957L49.465,84.559L51.909,84.559C52.467,84.559 52.907,84.358 53.256,84.028C53.613,83.691 53.881,83.214 54.086,82.677L54.198,82.416C54.688,81.095 55.173,79.772 55.661,78.451C55.758,78.187 55.789,77.92 55.757,77.664C55.723,77.409 55.625,77.159 55.465,76.928C55.304,76.699 55.104,76.519 54.875,76.4C54.647,76.281 54.387,76.219 54.105,76.219L45.979,76.226C45.702,76.226 45.453,76.336 45.273,76.516C45.094,76.694 44.984,76.942 44.984,77.218L44.984,87.286L48.843,87.286L48.843,78.735L51.612,78.735L51.534,78.957ZM25.499,87.019C25.987,87.222 26.573,87.286 27.193,87.286L28.92,87.286L26.269,81.399L28.449,76.226L26.863,76.226C25.646,76.226 24.653,76.226 24.201,77.296L22.898,80.415L21.238,80.415L21.238,76.226L18.132,76.226C17.86,76.226 17.611,76.337 17.431,76.517C17.253,76.695 17.142,76.942 17.142,77.218L17.142,87.286L20.243,87.286C20.518,87.286 20.768,87.175 20.947,86.996C21.126,86.818 21.238,86.57 21.238,86.297L21.238,82.759L22.895,82.759L24.384,85.947C24.633,86.488 25.023,86.822 25.499,87.019Z" style="fill:rgb(255,221,0);fill-rule:nonzero;"/>
        <path d="M89.166,58.954C89.235,59.648 89.271,60.351 89.271,61.065C89.271,63.183 88.951,65.227 88.357,67.152L48.989,67.152C48.705,66.232 48.484,65.285 48.33,64.315C51.387,64.218 52.713,63.636 55.341,60.83C56.498,59.594 57.954,58.962 59.648,58.962L89.166,58.954Z" style="fill:rgb(255,221,0);"/>
        <path d="M86.154,50.165C87.526,52.362 88.497,54.835 88.961,57.483L54.064,57.496C52.313,57.482 50.08,57.447 48.377,57.528C48.494,56.85 48.645,56.185 48.827,55.532C50.739,55.536 52.202,55.572 53.4,55.535C58.62,55.581 59.865,55.571 63.17,52.041C64.327,50.805 65.784,50.173 67.476,50.173L86.154,50.165Z" style="fill:rgb(255,221,0);"/>
        <path d="M77.084,42.255C80.289,43.691 83.06,45.921 85.147,48.696L67.682,48.704L61.893,48.706C59.612,48.687 55.396,48.581 53.693,49.13L55.735,46.752L55.739,46.752C58.273,46.752 60.853,46.82 63.382,46.748L63.391,46.748C66.461,46.653 67.788,46.074 70.422,43.26C72.649,40.884 74.551,41.12 77.084,42.255Z" style="fill:rgb(255,221,0);"/>
        <path d="M73.148,32.591C73.034,32.77 72.91,32.939 72.772,33.1L72.704,33.179C72.566,33.34 72.416,33.487 72.256,33.625L72.251,33.621C70.815,34.847 68.3,35.601 63.561,36.889L63.565,36.86L63.538,36.869C64.116,31.992 64.495,29.394 65.497,27.794L65.492,27.79C65.606,27.61 65.73,27.44 65.867,27.28L65.936,27.201C66.075,27.041 66.224,26.894 66.385,26.755L66.39,26.759C67.682,25.657 69.847,24.935 73.72,23.864C73.845,23.745 73.966,23.617 74.081,23.481C75.435,21.898 77.291,19.728 77.291,19.728C78.173,18.665 78.222,18.617 80.134,18.604C77.455,21.697 77.225,22.264 74.938,24.877C74.444,28.887 74.047,31.144 73.143,32.587L73.148,32.591Z" style="fill:rgb(255,221,0);fill-rule:nonzero;"/>
        <path d="M59.754,30.571C61.187,36.926 61.226,37.246 55.767,44.43C55.162,41.439 54.633,39.393 54.34,37.795C53.159,32.562 52.924,31.42 55.924,27.17C56.724,26.038 56.989,24.764 56.704,23.408C56.278,21.369 55.693,18.575 55.693,18.575C55.388,17.228 55.38,17.158 56.537,15.635C57.45,20.138 58.884,25.85 59.754,30.571Z" style="fill:rgb(255,221,0);fill-rule:nonzero;"/>
        <path d="M52.224,38.99C53.657,45.345 53.696,45.667 48.238,52.85C47.632,49.858 47.104,47.813 46.809,46.216C45.63,40.982 45.395,39.84 48.395,35.59C49.195,34.458 49.459,33.184 49.175,31.827C48.748,29.788 48.162,26.993 48.162,26.993C47.858,25.647 47.851,25.579 49.008,24.055C49.92,28.556 51.354,34.27 52.224,38.99Z" style="fill:rgb(255,221,0);fill-rule:nonzero;"/>
        <path d="M44.694,48.082C46.127,54.437 46.167,54.758 40.709,61.942C40.102,58.949 39.574,56.905 39.28,55.306C38.1,50.073 37.865,48.931 40.866,44.682C41.665,43.55 41.929,42.275 41.645,40.919C41.218,38.88 40.633,36.085 40.633,36.085C40.329,34.739 40.321,34.67 41.478,33.147C42.391,37.648 43.824,43.362 44.694,48.082Z" style="fill:rgb(255,221,0);fill-rule:nonzero;"/>
    </g>
</svg>
